name Walk6.mot
datacolumns 19
datarows 30
range 2.52000000 2.54900000
endheader

                time	   L_ground_force_vx	   L_ground_force_vy	   L_ground_force_vz	   L_ground_force_px	   L_ground_force_py	   L_ground_force_pz	   R_ground_force_vx	   R_ground_force_vy	   R_ground_force_vz	   R_ground_force_px	   R_ground_force_py	   R_ground_force_pz	   L_ground_torque_x	   L_ground_torque_y	   L_ground_torque_z	   R_ground_torque_x	   R_ground_torque_y	   R_ground_torque_z	
          2.52000000	         24.49486186	        740.12112725	         60.38750829	         -0.37880594	          0.00000000	         -0.09034411	          0.00198435	          0.08607980	          0.01729845	          0.00003862	          0.00000000	          0.00006345	          0.00000000	          0.23401166	          0.00000000	          0.00000000	         -0.00204723	          0.00000000	
          2.52100000	         24.90772361	        740.67098289	         60.57705604	         -0.37849745	          0.00000000	         -0.09038959	          0.00173747	          0.09405517	          0.01833966	          0.00004136	          0.00000000	          0.00006762	          0.00000000	          0.24367811	          0.00000000	          0.00000000	         -0.00209619	          0.00000000	
          2.52200000	         25.32041623	        741.22045271	         60.76942915	         -0.37818539	          0.00000000	         -0.09043552	          0.00146047	          0.10238321	          0.01940189	          0.00004418	          0.00000000	          0.00007190	          0.00000000	          0.25347279	          0.00000000	          0.00000000	         -0.00214105	          0.00000000	
          2.52300000	         25.73296152	        741.76955376	         60.96446012	         -0.37786980	          0.00000000	         -0.09048185	          0.00115171	          0.11106231	          0.02048269	          0.00004709	          0.00000000	          0.00007627	          0.00000000	          0.26338146	          0.00000000	          0.00000000	         -0.00218123	          0.00000000	
          2.52400000	         26.14537777	        742.31830300	         61.16197741	         -0.37755071	          0.00000000	         -0.09052854	          0.00080949	          0.12008923	          0.02157934	          0.00005007	          0.00000000	          0.00008074	          0.00000000	          0.27339094	          0.00000000	          0.00000000	         -0.00221614	          0.00000000	
          2.52500000	         26.55767980	        742.86671575	         61.36180651	         -0.37722814	          0.00000000	         -0.09057557	          0.00043213	          0.12945902	          0.02268877	          0.00005312	          0.00000000	          0.00008529	          0.00000000	          0.28348917	          0.00000000	          0.00000000	         -0.00224514	          0.00000000	
          2.52600000	         26.96987878	        743.41480463	         61.56377096	         -0.37690212	          0.00000000	         -0.09062288	          0.00001791	          0.13916485	          0.02380760	          0.00005623	          0.00000000	          0.00008991	          0.00000000	          0.29366541	          0.00000000	          0.00000000	         -0.00226756	          0.00000000	
          2.52700000	         27.38198182	        743.96257895	         61.76769331	         -0.37657266	          0.00000000	         -0.09067044	         -0.00043486	          0.14919785	          0.02493207	          0.00005940	          0.00000000	          0.00009459	          0.00000000	          0.30391041	          0.00000000	          0.00000000	         -0.00228270	          0.00000000	
          2.52800000	         27.79399110	        744.51004435	         61.97339611	         -0.37623979	          0.00000000	         -0.09071822	         -0.00092792	          0.15954700	          0.02605806	          0.00006262	          0.00000000	          0.00009931	          0.00000000	          0.31421655	          0.00000000	          0.00000000	         -0.00228982	          0.00000000	
          2.52900000	         28.20590294	        745.05720252	         62.18070278	         -0.37590351	          0.00000000	         -0.09076618	         -0.00146296	          0.17019893	          0.02718107	          0.00006588	          0.00000000	          0.00010407	          0.00000000	          0.32457762	          0.00000000	          0.00000000	         -0.00228815	          0.00000000	
          2.53000000	         28.61770668	        745.60405086	         62.38943836	         -0.37556385	          0.00000000	         -0.09081430	         -0.00204167	          0.18113778	          0.02829618	          0.00006917	          0.00000000	          0.00010883	          0.00000000	          0.33498849	          0.00000000	          0.00000000	         -0.00227687	          0.00000000	
          2.53100000	         29.02938372	        746.15058242	         62.59942975	         -0.37522082	          0.00000000	         -0.09086256	         -0.00266574	          0.19234504	          0.02939805	          0.00007249	          0.00000000	          0.00011359	          0.00000000	          0.34544454	          0.00000000	          0.00000000	         -0.00225514	          0.00000000	
          2.53200000	         29.44090688	        746.69678627	         62.81050550	         -0.37487443	          0.00000000	         -0.09091092	         -0.00333678	          0.20379937	          0.03048090	          0.00007581	          0.00000000	          0.00011832	          0.00000000	          0.35594119	          0.00000000	          0.00000000	         -0.00222207	          0.00000000	
          2.53300000	         29.85224013	        747.24264856	         63.02249524	         -0.37452472	          0.00000000	         -0.09095936	         -0.00405640	          0.21547642	          0.03153849	          0.00007912	          0.00000000	          0.00012300	          0.00000000	          0.36647348	          0.00000000	          0.00000000	         -0.00217676	          0.00000000	
          2.53400000	         30.26333874	        747.78815424	         63.23522886	         -0.37417171	          0.00000000	         -0.09100786	         -0.00482614	          0.22734866	          0.03256411	          0.00008242	          0.00000000	          0.00012760	          0.00000000	          0.37703598	          0.00000000	          0.00000000	         -0.00211824	          0.00000000	
          2.53500000	         30.67414984	        748.33328894	         63.44853596	         -0.37381542	          0.00000000	         -0.09105640	         -0.00564748	          0.23938520	          0.03355054	          0.00008568	          0.00000000	          0.00013211	          0.00000000	          0.38762297	          0.00000000	          0.00000000	         -0.00204554	          0.00000000	
          2.53600000	         31.08461319	        748.87804040	         63.66224567	         -0.37345590	          0.00000000	         -0.09110496	         -0.00652181	          0.25155160	          0.03449008	          0.00008890	          0.00000000	          0.00013650	          0.00000000	          0.39822869	          0.00000000	          0.00000000	         -0.00195764	          0.00000000	
          2.53700000	         31.49466202	        749.42239915	         63.87618716	         -0.37309316	          0.00000000	         -0.09115350	         -0.00745046	          0.26380968	          0.03537449	          0.00009204	          0.00000000	          0.00014072	          0.00000000	          0.40884767	          0.00000000	          0.00000000	         -0.00185348	          0.00000000	
          2.53800000	         31.90422367	        749.96635826	         64.09019056	         -0.37272724	          0.00000000	         -0.09120202	         -0.00843463	          0.27611733	          0.03619498	          0.00009509	          0.00000000	          0.00014476	          0.00000000	          0.41947488	          0.00000000	          0.00000000	         -0.00173199	          0.00000000	
          2.53900000	         32.31322006	        750.50991272	         64.30408812	         -0.37235818	          0.00000000	         -0.09125047	         -0.00947542	          0.28842833	          0.03694224	          0.00009804	          0.00000000	          0.00014857	          0.00000000	          0.43010577	          0.00000000	          0.00000000	         -0.00159206	          0.00000000	
          2.54000000	         32.72156785	        751.05305875	         64.51771536	         -0.37198600	          0.00000000	         -0.09129884	         -0.01057380	          0.30069214	          0.03760637	          0.00010086	          0.00000000	          0.00015213	          0.00000000	          0.44073619	          0.00000000	          0.00000000	         -0.00143255	          0.00000000	
          2.54100000	         33.12917843	        751.59579363	         64.73091200	         -0.37161075	          0.00000000	         -0.09134709	         -0.01173057	          0.31285374	          0.03817690	          0.00010352	          0.00000000	          0.00015539	          0.00000000	          0.45136211	          0.00000000	          0.00000000	         -0.00125230	          0.00000000	
          2.54200000	         33.53595771	        752.13811612	         64.94352250	         -0.37123246	          0.00000000	         -0.09139521	         -0.01294639	          0.32485340	          0.03864278	          0.00010600	          0.00000000	          0.00015830	          0.00000000	          0.46197931	          0.00000000	          0.00000000	         -0.00105013	          0.00000000	
          2.54300000	         33.94180599	        752.68002727	         65.15539625	         -0.37085117	          0.00000000	         -0.09144317	         -0.01422172	          0.33662651	          0.03899236	          0.00010827	          0.00000000	          0.00016084	          0.00000000	          0.47258307	          0.00000000	          0.00000000	         -0.00082483	          0.00000000	
          2.54400000	         34.34661821	        753.22153088	         65.36638750	         -0.37046693	          0.00000000	         -0.09149095	         -0.01555683	          0.34810340	          0.03921339	          0.00011031	          0.00000000	          0.00016295	          0.00000000	          0.48316776	          0.00000000	          0.00000000	         -0.00057520	          0.00000000	
          2.54500000	         34.75028475	        753.76263362	         65.57635507	         -0.37007978	          0.00000000	         -0.09153854	         -0.01695175	          0.35920915	          0.03929301	          0.00011208	          0.00000000	          0.00016458	          0.00000000	          0.49372662	          0.00000000	          0.00000000	         -0.00029999	          0.00000000	
          2.54600000	         35.15269282	        754.30334442	         65.78516196	         -0.36968978	          0.00000000	         -0.09158593	         -0.01840629	          0.36986340	          0.03921776	          0.00011356	          0.00000000	          0.00016568	          0.00000000	          0.50425168	          0.00000000	          0.00000000	          0.00000204	          0.00000000	
          2.54700000	         35.55372834	        754.84367378	         65.99267521	         -0.36929699	          0.00000000	         -0.09163311	         -0.01991998	          0.37998019	          0.03897354	          0.00011470	          0.00000000	          0.00016620	          0.00000000	          0.51473392	          0.00000000	          0.00000000	          0.00033212	          0.00000000	
          2.54800000	         35.95327775	        755.38363324	         66.19876604	         -0.36890145	          0.00000000	         -0.09168008	         -0.02149206	          0.38946780	          0.03854568	          0.00011547	          0.00000000	          0.00016608	          0.00000000	          0.52516366	          0.00000000	          0.00000000	          0.00069150	          0.00000000	
          2.54900000	         36.35122947	        755.92323541	         66.40331030	         -0.36850324	          0.00000000	         -0.09172686	         -0.02312146	          0.39822858	          0.03791886	          0.00011584	          0.00000000	          0.00016527	          0.00000000	          0.53553113	          0.00000000	          0.00000000	          0.00108142	          0.00000000	
